<svg xmlns="http://www.w3.org/2000/svg" viewBox="0 0 512 512" role="img" aria-label="XBAR app icon">
  <defs>
    <radialGradient id="plateGlow" cx="50%" cy="12%" r="82%">
      <stop offset="0" stop-color="#3a3f44"/>
      <stop offset="0.42" stop-color="#14181c"/>
      <stop offset="1" stop-color="#030508"/>
    </radialGradient>
    <linearGradient id="rim" x1="58" y1="36" x2="450" y2="480" gradientUnits="userSpaceOnUse">
      <stop offset="0" stop-color="#818992"/>
      <stop offset="0.35" stop-color="#2b3137"/>
      <stop offset="0.7" stop-color="#0b1015"/>
      <stop offset="1" stop-color="#168eea"/>
    </linearGradient>
    <linearGradient id="xSteel" x1="108" y1="104" x2="407" y2="416" gradientUnits="userSpaceOnUse">
      <stop offset="0" stop-color="#f7fafc"/>
      <stop offset="0.16" stop-color="#a3abb2"/>
      <stop offset="0.38" stop-color="#f1f4f6"/>
      <stop offset="0.58" stop-color="#747c84"/>
      <stop offset="0.82" stop-color="#d9dee2"/>
      <stop offset="1" stop-color="#3a4148"/>
    </linearGradient>
    <filter id="softShadow" x="-20%" y="-20%" width="140%" height="140%">
      <feDropShadow dx="0" dy="22" stdDeviation="22" flood-color="#000" flood-opacity="0.58"/>
      <feDropShadow dx="0" dy="0" stdDeviation="12" flood-color="#149cff" flood-opacity="0.20"/>
    </filter>
    <pattern id="grain" width="9" height="9" patternUnits="userSpaceOnUse">
      <path d="M0 8h9M8 0v9" stroke="#fff" stroke-opacity="0.018"/>
    </pattern>
  </defs>
  <rect width="512" height="512" rx="112" fill="#05070a"/>
  <rect x="38" y="38" width="436" height="436" rx="96" fill="url(#plateGlow)" stroke="url(#rim)" stroke-width="10"/>
  <rect x="58" y="58" width="396" height="396" rx="82" fill="url(#grain)" opacity="0.9"/>
  <rect x="58" y="58" width="396" height="396" rx="82" fill="none" stroke="#ffffff" stroke-opacity="0.10" stroke-width="2"/>
  <rect x="72" y="72" width="368" height="368" rx="72" fill="none" stroke="#159eff" stroke-opacity="0.26" stroke-width="3"/>
  <g filter="url(#softShadow)">
    <path d="M96 111h91l69 92 69-92h91L302 256l114 145h-91l-69-92-69 92H96l114-145L96 111Z" fill="#06090d" opacity="0.86" transform="translate(10 16)"/>
    <path d="M96 111h91l69 92 69-92h91L302 256l114 145h-91l-69-92-69 92H96l114-145L96 111Z" fill="url(#xSteel)"/>
    <path d="M325 111h91L302 256l114 145h-91l-69-92V203l69-92Z" fill="#111820" opacity="0.32"/>
    <path d="M125 128h48l83 110 83-110h52" fill="none" stroke="#fff" stroke-opacity="0.46" stroke-width="10" stroke-linecap="round"/>
    <path d="M125 384h62l69-92 69 92h62" fill="none" stroke="#159eff" stroke-opacity="0.34" stroke-width="8" stroke-linecap="round"/>
  </g>
</svg>
