<svg xmlns="http://www.w3.org/2000/svg" viewBox="0 0 512 512" role="img" aria-labelledby="title">
  <title id="title">XBAR app icon</title>
  <defs>
    <radialGradient id="orb" cx="70%" cy="18%" r="78%">
      <stop stop-color="#183455"/>
      <stop offset="0.52" stop-color="#09111d"/>
      <stop offset="1" stop-color="#03060b"/>
    </radialGradient>
    <linearGradient id="edge" x1="70" x2="442" y1="34" y2="478" gradientUnits="userSpaceOnUse">
      <stop stop-color="#f6f8ff" stop-opacity="0.72"/>
      <stop offset="0.46" stop-color="#68849f" stop-opacity="0.26"/>
      <stop offset="1" stop-color="#121d2c" stop-opacity="0.75"/>
    </linearGradient>
    <linearGradient id="steel" x1="104" x2="408" y1="84" y2="428" gradientUnits="userSpaceOnUse">
      <stop stop-color="#f8fbff"/>
      <stop offset="0.42" stop-color="#93aabd"/>
      <stop offset="1" stop-color="#263241"/>
    </linearGradient>
    <linearGradient id="blue" x1="198" x2="390" y1="112" y2="426" gradientUnits="userSpaceOnUse">
      <stop stop-color="#8ee1ff"/>
      <stop offset="0.48" stop-color="#2e8dff"/>
      <stop offset="1" stop-color="#1847ff"/>
    </linearGradient>
    <filter id="softGlow" x="-30%" y="-30%" width="160%" height="160%" color-interpolation-filters="sRGB">
      <feGaussianBlur stdDeviation="10" result="blur"/>
      <feMerge>
        <feMergeNode in="blur"/>
        <feMergeNode in="SourceGraphic"/>
      </feMerge>
    </filter>
  </defs>
  <rect width="512" height="512" rx="112" fill="url(#orb)"/>
  <rect x="20" y="20" width="472" height="472" rx="96" fill="none" stroke="url(#edge)" stroke-width="3"/>
  <g opacity="0.42" fill="none" stroke="#d6e8f7" stroke-linecap="round" stroke-width="7">
    <path d="M91 132 207 256 91 380"/>
    <path d="M421 132 305 256 421 380"/>
  </g>
  <g filter="url(#softGlow)">
    <path d="M82 84h94l80 101 80-101h94L313 256l121 172h-96l-82-108-82 108H78l121-172L82 84Z" fill="url(#steel)"/>
    <path d="M256 185 336 84h94L313 256l121 172h-96l-82-108V185Z" fill="url(#blue)"/>
  </g>
  <path d="M163 236h186" fill="none" stroke="#f7fbff" stroke-linecap="round" stroke-width="17" opacity="0.72"/>
  <path d="M220 187c38-54 100-64 145-25-35 1-59 13-78 41" fill="none" stroke="#d9f4ff" stroke-linecap="round" stroke-linejoin="round" stroke-width="15" opacity="0.88"/>
  <circle cx="365" cy="161" r="8.6" fill="#d9f4ff" opacity="0.92"/>
  <path d="M132 430h248" stroke="#2f8dff" stroke-linecap="round" stroke-width="5" opacity="0.36"/>
</svg>
