<svg xmlns="http://www.w3.org/2000/svg" viewBox="0 0 1600 1100" role="img" aria-label="XBAR graphite horse brand background">
  <defs>
    <radialGradient id="blueCast" cx="68%" cy="36%" r="58%">
      <stop offset="0" stop-color="#153859" stop-opacity="0.62"/>
      <stop offset="0.42" stop-color="#07131f" stop-opacity="0.52"/>
      <stop offset="1" stop-color="#020407" stop-opacity="0"/>
    </radialGradient>
    <linearGradient id="steel" x1="0" x2="1" y1="0" y2="1">
      <stop offset="0" stop-color="#e2e6ea"/>
      <stop offset="0.35" stop-color="#7f878e"/>
      <stop offset="0.68" stop-color="#d0d5d9"/>
      <stop offset="1" stop-color="#333a41"/>
    </linearGradient>
    <linearGradient id="blueLine" x1="0" x2="1">
      <stop offset="0" stop-color="#2f8dff" stop-opacity="0"/>
      <stop offset="0.42" stop-color="#31a8ff" stop-opacity="0.62"/>
      <stop offset="1" stop-color="#2f8dff" stop-opacity="0.18"/>
    </linearGradient>
    <filter id="softBlue" x="-20%" y="-20%" width="140%" height="140%">
      <feDropShadow dx="0" dy="0" stdDeviation="8" flood-color="#159eff" flood-opacity="0.20"/>
    </filter>
    <pattern id="grain" width="12" height="12" patternUnits="userSpaceOnUse">
      <path d="M0 11h12M11 0v12" stroke="#fff" stroke-opacity="0.018"/>
    </pattern>
  </defs>
  <rect width="1600" height="1100" fill="#030508"/>
  <rect width="1600" height="1100" fill="url(#grain)"/>
  <rect width="1600" height="1100" fill="url(#blueCast)"/>
  <path d="M1118 88c-118 58-228 122-340 212-102 82-194 176-298 268 127-47 259-107 402-196 119-74 218-150 312-224l-76-60Z" fill="#0c1117" opacity="0.82"/>
  <g opacity="0.68" filter="url(#softBlue)">
    <path d="M925 152c-122 70-251 169-382 314" fill="none" stroke="#2f8dff" stroke-opacity="0.34" stroke-width="2.2"/>
    <path d="M1045 119c-148 94-297 206-443 376" fill="none" stroke="#7bc5ff" stroke-opacity="0.34" stroke-width="1.6"/>
    <path d="M1230 138c-98 82-204 168-325 246-121 78-239 137-356 181" fill="none" stroke="#2f8dff" stroke-opacity="0.30" stroke-width="1.8"/>
    <path d="M1124 176c111 22 211 71 298 147 58 51 99 109 122 173" fill="none" stroke="#6bbdff" stroke-opacity="0.20" stroke-width="2"/>
  </g>
  <g transform="translate(944 96) scale(1.03)" opacity="0.78">
    <path d="M259 29c-32 39-54 86-69 139-7 24 5 45 27 55 62 29 112 72 148 130 18 29 52 42 85 32l58-18-45 72c-33 52-46 109-39 170l13 114-75-78c-77-79-149-169-238-232-26-18-54-32-84-42 66-51 115-117 144-198 17-47 42-95 75-144Z" fill="#14191e" stroke="#323a42" stroke-width="3"/>
    <path d="M296 43c-29 70-39 133-31 188 77 30 139 79 186 148" fill="none" stroke="#2f8dff" stroke-opacity="0.35" stroke-width="2"/>
    <path d="M407 126l112-74-30 133 97 95-127-5-56 112-35-123-125-20 107-67 57-51Z" fill="#0a0e13" stroke="#4e5861" stroke-width="2" opacity="0.72"/>
    <path d="M418 259c25-10 47-10 65 0-15 24-37 32-65 0Z" fill="#05070a" stroke="#64707b" stroke-width="2"/>
  </g>
  <g transform="translate(112 182)">
    <rect x="0" y="0" width="318" height="318" rx="72" fill="#0b0e12" stroke="#52606b" stroke-width="6"/>
    <rect x="15" y="15" width="288" height="288" rx="58" fill="#15191d" stroke="#1297ff" stroke-opacity="0.38" stroke-width="3"/>
    <path d="M54 72h59l47 63 47-63h59l-77 87 80 90h-61l-48-62-48 62H51l80-90-77-87Z" fill="#05070a" opacity="0.8" transform="translate(8 10)"/>
    <path d="M54 72h59l47 63 47-63h59l-77 87 80 90h-61l-48-62-48 62H51l80-90-77-87Z" fill="url(#steel)"/>
    <path d="M212 72h54l-77 87 80 90h-61l-48-62v-52l52-63Z" fill="#0d141c" opacity="0.34"/>
    <path d="M80 88h32l48 64 48-64h34" fill="none" stroke="#fff" stroke-opacity="0.43" stroke-width="7" stroke-linecap="round"/>
    <path d="M79 234h34l47-61 47 61h36" fill="none" stroke="#159eff" stroke-opacity="0.34" stroke-width="6" stroke-linecap="round"/>
  </g>
  <g transform="translate(506 294)">
    <text x="0" y="0" font-family="Outfit, Arial, sans-serif" font-size="86" font-weight="800" letter-spacing="32" fill="#a9b1b8">XBAR</text>
    <text x="2" y="58" font-family="Outfit, Arial, sans-serif" font-size="13" font-weight="700" letter-spacing="9" fill="#52606c">EQUINE OPERATIONS COMMAND</text>
  </g>
  <path d="M0 906h1600" stroke="#fff" stroke-opacity="0.05"/>
</svg>
