<svg xmlns="http://www.w3.org/2000/svg" viewBox="0 0 64 64" role="img" aria-labelledby="title">
  <title id="title">XBAR abstract X mark</title>
  <defs>
    <linearGradient id="steel" x1="9" x2="55" y1="7" y2="58" gradientUnits="userSpaceOnUse">
      <stop stop-color="#f8fbff"/>
      <stop offset="0.42" stop-color="#8fa5b8"/>
      <stop offset="1" stop-color="#253241"/>
    </linearGradient>
    <linearGradient id="blue" x1="19" x2="49" y1="13" y2="53" gradientUnits="userSpaceOnUse">
      <stop stop-color="#8edcff"/>
      <stop offset="0.5" stop-color="#2f8dff"/>
      <stop offset="1" stop-color="#1649ff"/>
    </linearGradient>
    <filter id="glow" x="-30%" y="-30%" width="160%" height="160%" color-interpolation-filters="sRGB">
      <feGaussianBlur stdDeviation="1.6" result="blur"/>
      <feMerge>
        <feMergeNode in="blur"/>
        <feMergeNode in="SourceGraphic"/>
      </feMerge>
    </filter>
  </defs>
  <g fill="none" stroke="rgba(248,251,255,0.62)" stroke-width="1.15">
    <path d="M11 16.5 25.8 32 11 47.5" opacity="0.45"/>
    <path d="M53 16.5 38.2 32 53 47.5" opacity="0.45"/>
  </g>
  <g filter="url(#glow)">
    <path d="M9.5 10.5h11.8l10.9 13.9 11-13.9h11.3L39.8 31.9l15 21.6H43.1L32.2 39.2 21.3 53.5H9.6l15-21.6L9.5 10.5Z" fill="url(#steel)"/>
    <path d="M32.2 24.4 43.2 10.5h11.3L39.8 31.9l15 21.6H43.1L32.2 39.2V24.4Z" fill="url(#blue)"/>
  </g>
  <path d="M20.3 29.8h23.4" fill="none" stroke="#f4f8ff" stroke-linecap="round" stroke-width="2.2" opacity="0.72"/>
  <path d="M27.4 23.7c4.8-6.8 12.5-8 18.2-3.1-4.4.1-7.3 1.6-9.7 5.2" fill="none" stroke="#d9f4ff" stroke-linecap="round" stroke-linejoin="round" stroke-width="2" opacity="0.86"/>
  <circle cx="45.6" cy="20.4" r="1.15" fill="#d9f4ff" opacity="0.9"/>
</svg>
