<svg xmlns="http://www.w3.org/2000/svg" viewBox="0 0 64 64" role="img" aria-label="XBAR">
  <defs>
    <linearGradient id="bg" x1="8" y1="4" x2="56" y2="62" gradientUnits="userSpaceOnUse">
      <stop offset="0" stop-color="#2a2d30"/>
      <stop offset="0.45" stop-color="#101316"/>
      <stop offset="1" stop-color="#05070a"/>
    </linearGradient>
    <linearGradient id="steel" x1="12" y1="12" x2="52" y2="52" gradientUnits="userSpaceOnUse">
      <stop offset="0" stop-color="#f3f5f7"/>
      <stop offset="0.22" stop-color="#8f969c"/>
      <stop offset="0.52" stop-color="#d8dde1"/>
      <stop offset="0.78" stop-color="#4e555b"/>
      <stop offset="1" stop-color="#eef2f5"/>
    </linearGradient>
    <filter id="shadow" x="-20%" y="-20%" width="140%" height="140%">
      <feDropShadow dx="0" dy="3" stdDeviation="2" flood-color="#000" flood-opacity="0.5"/>
      <feDropShadow dx="0" dy="0" stdDeviation="2" flood-color="#1597ff" flood-opacity="0.22"/>
    </filter>
  </defs>
  <rect x="4" y="4" width="56" height="56" rx="14" fill="url(#bg)"/>
  <rect x="5.5" y="5.5" width="53" height="53" rx="12.5" fill="none" stroke="#5f666d" stroke-opacity="0.65"/>
  <rect x="7" y="7" width="50" height="50" rx="11" fill="none" stroke="#1188e8" stroke-opacity="0.36"/>
  <path d="M13 15h11.5L32 25.6 39.5 15H51L38.2 32 51 49H39.5L32 38.4 24.5 49H13l12.8-17L13 15Z" fill="#05070a" opacity="0.9" transform="translate(1 2)"/>
  <path d="M13 15h11.5L32 25.6 39.5 15H51L38.2 32 51 49H39.5L32 38.4 24.5 49H13l12.8-17L13 15Z" fill="url(#steel)" filter="url(#shadow)"/>
  <path d="M39.5 15H51L38.2 32 51 49H39.5L32 38.4V25.6L39.5 15Z" fill="#11161b" opacity="0.28"/>
  <path d="M18 17h5.3L32 29.2 40.7 17H46" fill="none" stroke="#ffffff" stroke-opacity="0.45" stroke-width="1.5" stroke-linecap="round"/>
  <path d="M16 49h8.5L32 38.4 39.5 49H48" fill="none" stroke="#1aa8ff" stroke-opacity="0.38" stroke-width="1.6" stroke-linecap="round"/>
</svg>
